<svg width="128" height="128" viewBox="0 0 128 128" fill="none" xmlns="http://www.w3.org/2000/svg">
<rect width="128" height="128" rx="64" fill="#3B99FC"/>
<path d="M43.0209 48.271C59.8302 31.9233 87.1698 31.9233 103.979 48.271L106.063 50.2879C107.09 51.2802 107.09 52.9143 106.063 53.9066L98.0733 61.6765C97.5596 62.1727 96.7328 62.1727 96.2191 61.6765L93.2384 58.7812C81.5349 47.4355 65.4651 47.4355 53.7616 58.7812L50.5235 61.9258C50.0098 62.422 49.183 62.422 48.6693 61.9258L40.6798 54.1559C39.6526 53.1636 39.6526 51.5295 40.6798 50.5372L43.0209 48.271ZM114.051 58.0357L121.04 64.8056C122.067 65.7979 122.067 67.432 121.04 68.4243L89.6767 99.0223C88.6495 100.015 86.9959 100.015 85.9686 99.0223C85.9686 99.0223 85.9686 99.0223 85.9686 99.0223L64.5581 78.1178C64.3013 77.8697 63.8842 77.8697 63.6274 78.1178C63.6274 78.1178 63.6274 78.1178 63.6274 78.1178L42.2314 99.0223C41.2042 100.015 39.5505 100.015 38.5233 99.0223C38.5233 99.0223 38.5233 99.0223 38.5233 99.0223L7.14465 68.4243C6.11744 67.432 6.11744 65.7979 7.14465 64.8056L14.1342 58.0357C15.1614 57.0434 16.815 57.0434 17.8423 58.0357L39.2419 78.9402C39.4986 79.1883 39.9158 79.1883 40.1726 78.9402C40.1726 78.9402 40.1726 78.9402 40.1726 78.9402L61.5686 58.0357C62.5958 57.0434 64.2495 57.0434 65.2767 58.0357C65.2767 58.0357 65.2767 58.0357 65.2767 58.0357L86.6872 78.9402C86.944 79.1883 87.3611 79.1883 87.6179 78.9402L109.017 58.0357C110.045 57.0434 111.698 57.0434 112.726 58.0357L114.051 58.0357Z" fill="white"/>
</svg>
